<svg width="172" height="36" viewBox="0 0 172 36" fill="none" xmlns="http://www.w3.org/2000/svg">
<path d="M64.8936 27.336C67.3016 27.336 69.2616 26.356 70.6896 24.788L67.9736 22.492C67.2176 23.332 66.0416 23.892 64.9216 23.892C62.7656 23.892 60.9736 21.988 60.9736 19.72C60.9736 17.508 62.7656 15.632 64.8936 15.632C66.0136 15.632 67.1616 16.164 67.8896 16.976L70.6056 14.652C69.2056 13.14 67.2736 12.188 64.9216 12.188C60.6376 12.188 56.9976 15.632 56.9976 19.748C56.9976 23.864 60.6096 27.336 64.8936 27.336ZM79.9606 27.336C84.2446 27.336 87.8286 23.864 87.8286 19.748C87.8286 15.632 84.2446 12.188 79.9606 12.188C75.6486 12.188 72.0366 15.632 72.0366 19.748C72.0366 23.864 75.6486 27.336 79.9606 27.336ZM79.9606 23.892C77.7766 23.892 75.9566 21.988 75.9566 19.748C75.9566 17.508 77.7766 15.632 79.9606 15.632C82.1166 15.632 83.9366 17.508 83.9366 19.748C83.9366 21.988 82.1166 23.892 79.9606 23.892ZM97.7067 27.336C101.991 27.336 105.575 23.864 105.575 19.748C105.575 15.632 101.991 12.188 97.7067 12.188C93.3947 12.188 89.7827 15.632 89.7827 19.748C89.7827 23.864 93.3947 27.336 97.7067 27.336ZM97.7067 23.892C95.5227 23.892 93.7027 21.988 93.7027 19.748C93.7027 17.508 95.5227 15.632 97.7067 15.632C99.8627 15.632 101.683 17.508 101.683 19.748C101.683 21.988 99.8627 23.892 97.7067 23.892ZM117.273 12.188C115.257 12.188 113.577 13.056 112.429 14.54V12.524H108.341V31.816H112.429V24.956C113.577 26.468 115.257 27.336 117.273 27.336C121.137 27.336 123.937 24.2 123.937 19.748C123.937 15.324 121.137 12.188 117.273 12.188ZM116.097 23.892C114.109 23.892 112.653 22.436 112.429 20.308V19.188C112.653 17.088 114.109 15.632 116.097 15.632C118.365 15.632 119.961 17.34 119.961 19.748C119.961 22.184 118.365 23.892 116.097 23.892ZM129.149 27.336C130.521 27.336 131.641 26.16 131.641 24.732C131.641 23.416 130.521 22.24 129.149 22.24C127.693 22.24 126.545 23.416 126.545 24.732C126.545 26.16 127.693 27.336 129.149 27.336ZM141.414 12.188C139.398 12.188 137.41 12.748 135.366 13.784L136.738 16.5C137.886 15.912 139.146 15.464 140.49 15.464C142.87 15.464 143.822 16.808 143.822 18.348V18.628C142.59 18.152 141.302 17.9 140.126 17.9C136.766 17.9 134.106 19.86 134.106 22.716C134.106 25.488 136.486 27.336 139.566 27.336C141.134 27.336 142.786 26.72 143.822 25.544V27H147.77V18.348C147.77 14.568 145.194 12.188 141.414 12.188ZM140.49 24.508C139.09 24.508 138.054 23.78 138.054 22.604C138.054 21.428 139.23 20.56 140.714 20.56C141.834 20.56 142.898 20.756 143.822 21.092V22.436C143.542 23.78 142.058 24.508 140.49 24.508ZM155.304 15.212V12.524H151.216V27H155.304V20.084C155.304 17.368 157.236 15.632 160.26 15.632V12.188C158.048 12.188 156.256 13.336 155.304 15.212ZM170.234 23.416C169.954 23.696 169.394 23.892 168.834 23.892C168.078 23.892 167.462 23.22 167.462 22.268V15.828H170.598V12.524H167.462V8.548H163.542V12.524H161.554V15.828H163.542V22.912C163.542 25.516 165.334 27.336 167.882 27.336C169.058 27.336 170.374 26.832 171.214 26.076L170.234 23.416Z" fill="white"/>
<path fill-rule="evenodd" clip-rule="evenodd" d="M15.6407 6.96682C15.3826 6.71064 15.3826 6.2953 15.6407 6.03913L21.5326 0.192132C21.7907 -0.0640437 22.2093 -0.0640441 22.4674 0.192131L28.3593 6.03913C28.6175 6.2953 28.6175 6.71064 28.3593 6.96682L22.4674 12.8138C22.2093 13.07 21.7907 13.07 21.5326 12.8138L15.6407 6.96682ZM7.91715 14.6315C7.65901 14.3753 7.65901 13.96 7.91715 13.7038L13.8091 7.85682C14.0672 7.60064 14.4857 7.60064 14.7439 7.85682L20.6358 13.7038C20.8939 13.96 20.8939 14.3753 20.6358 14.6315L14.7439 20.4785C14.4857 20.7347 14.0672 20.7347 13.8091 20.4785L7.91715 14.6315ZM0.193607 21.3685C-0.0645359 21.6247 -0.0645355 22.04 0.193607 22.2962L6.0855 28.1432C6.34365 28.3994 6.76218 28.3994 7.02032 28.1432L12.9122 22.2962C13.1704 22.04 13.1704 21.6247 12.9122 21.3685L7.02032 15.5215C6.76218 15.2653 6.34365 15.2653 6.0855 15.5215L0.193607 21.3685ZM31.0878 22.2962C30.8296 22.04 30.8296 21.6247 31.0878 21.3685L36.9797 15.5215C37.2378 15.2653 37.6564 15.2653 37.9145 15.5215L43.8064 21.3685C44.0645 21.6247 44.0645 22.04 43.8064 22.2962L37.9145 28.1432C37.6564 28.3994 37.2378 28.3994 36.9797 28.1432L31.0878 22.2962ZM23.3642 29.0332C23.1061 29.2894 23.1061 29.7047 23.3642 29.9609L29.2561 35.8079C29.5143 36.064 29.9328 36.064 30.191 35.8079L36.0829 29.9609C36.341 29.7047 36.341 29.2894 36.0829 29.0332L30.191 23.1862C29.9328 22.93 29.5143 22.93 29.2561 23.1862L23.3642 29.0332ZM7.91715 29.9609C7.65901 29.7047 7.65901 29.2894 7.91715 29.0332L13.8091 23.1862C14.0672 22.93 14.4857 22.93 14.7439 23.1862L20.6358 29.0332C20.8939 29.2894 20.8939 29.7047 20.6358 29.9609L14.7439 35.8079C14.4857 36.064 14.0672 36.064 13.8091 35.8079L7.91715 29.9609ZM15.6407 21.3685C15.3826 21.6247 15.3826 22.04 15.6407 22.2962L21.5326 28.1432C21.7907 28.3994 22.2093 28.3994 22.4674 28.1432L28.3593 22.2962C28.6175 22.04 28.6175 21.6247 28.3593 21.3685L22.4674 15.5215C22.2093 15.2653 21.7907 15.2653 21.5326 15.5215L15.6407 21.3685Z" fill="url(#paint0_linear_36_3480)"/>
<defs>
<linearGradient id="paint0_linear_36_3480" x1="12.1159" y1="31.2632" x2="26.6575" y2="18.1767" gradientUnits="userSpaceOnUse">
<stop stop-color="#7D27C7"/>
<stop offset="1" stop-color="#F80384"/>
</linearGradient>
</defs>
</svg>
