<svg width="24" height="24" viewBox="0 0 24 24" fill="none" xmlns="http://www.w3.org/2000/svg">
<g clip-path="url(#clip0_69_202)">
<path d="M4.21056 3.25967C5.63219 2.69282 7.1048 2.22494 8.62241 2.0075C8.84435 2.42139 9.05729 2.84128 9.25674 3.26717C11.0653 2.97775 12.9143 3.00474 14.7258 3.25967C14.9358 2.83978 15.1472 2.42139 15.3497 2C16.9347 2.23844 18.4778 2.71681 19.9565 3.33165C20.5173 3.49811 20.6913 4.12795 21.0122 4.55383C23.3186 8.20988 24.3638 12.6397 23.8869 16.9391C23.7939 17.0831 23.632 17.161 23.5015 17.266C21.8625 18.3832 20.0689 19.2755 18.1809 19.8828C18.0235 19.9203 17.794 20.0673 17.692 19.8573C17.2437 19.2485 16.8478 18.6022 16.5073 17.9273C17.2107 17.6739 17.8795 17.3395 18.5363 16.9826C18.3699 16.8461 18.2019 16.7127 18.0325 16.5822C14.2459 18.3922 9.68413 18.3382 5.88712 16.5837C5.73266 16.7187 5.5782 16.8521 5.42374 16.9871C6.08057 17.3635 6.78688 17.6349 7.46321 17.9708C7.06131 18.6741 6.66392 19.388 6.14805 20.0163C3.98112 19.3415 1.91166 18.3322 0.0911319 16.9721C-0.0348352 15.435 -0.0468319 13.8829 0.161614 12.3518C0.553012 9.25661 1.77219 6.29788 3.50724 3.71705C3.6527 3.45612 3.95412 3.37214 4.21056 3.25967M7.55319 9.57752C6.57244 9.80097 5.88862 10.7697 5.85113 11.752C5.74166 12.9651 6.67741 14.2488 7.94308 14.2773C9.32422 14.3403 10.3695 12.8917 10.1505 11.5885C10.0575 10.3468 8.81736 9.24461 7.55319 9.57752ZM15.6421 9.55653C14.6703 9.72598 13.949 10.6272 13.8485 11.5855C13.6521 12.8332 14.5864 14.2188 15.8955 14.2743C17.2347 14.3703 18.2769 13.0101 18.1449 11.74C18.1329 10.4803 16.9317 9.2971 15.6421 9.55653V9.55653Z" fill="#8E8E8E"/>
</g>
<defs>
<clipPath id="clip0_69_202">
<rect width="24" height="24" fill="white"/>
</clipPath>
</defs>
</svg>
