<svg width="24" height="24" viewBox="0 0 24 24" fill="none" xmlns="http://www.w3.org/2000/svg">
<g clip-path="url(#clip0_69_187)">
<path d="M24 4.49581C23.1296 4.88398 22.396 4.89681 21.6175 4.51292C22.6206 3.91196 22.6665 3.48957 23.0291 2.35395C22.0902 2.91107 21.0497 3.31634 19.943 3.53449C19.0586 2.59134 17.7947 2 16.3981 2C13.7141 2 11.5391 4.17715 11.5391 6.85903C11.5391 7.23971 11.5819 7.61076 11.6642 7.96685C7.62645 7.76475 4.04527 5.83033 1.6489 2.88968C1.2308 3.6072 0.991267 4.44235 0.991267 5.3331C0.991267 7.01943 1.84994 8.50579 3.15238 9.37729C2.35573 9.35163 1.6072 9.13349 0.952771 8.76992C0.951702 8.79023 0.951702 8.80948 0.951702 8.83087C0.951702 11.1855 2.62627 13.1488 4.85047 13.5958C4.1383 13.7893 3.38763 13.8193 2.65514 13.6803C3.27428 15.6093 5.06862 17.0144 7.19444 17.054C5.11567 18.6837 2.53752 19.3627 0 19.0654C2.15149 20.4438 4.70397 21.2479 7.44894 21.2479C16.3864 21.2479 21.2732 13.8439 21.2732 7.42256C21.2732 7.21084 21.27 7.00232 21.2604 6.7938C22.2078 6.10943 23.3488 5.47104 24 4.49581Z" fill="#8E8E8E"/>
</g>
<defs>
<clipPath id="clip0_69_187">
<rect width="24" height="24" fill="white"/>
</clipPath>
</defs>
</svg>
