<!-- "display: none" ensures the SVG doesn't take up space even though it's not being shown because of the use of symbol -->
<svg xmlns="http://www.w3.org/2000/svg" style="display:none;">
    <symbol id="arrow" viewBox="0 0 24 24">
        <g>
            <path fill-rule="evenodd" clip-rule="evenodd" d="M12 24C18.6274 24 24 18.6274 24 12C24 5.37258 18.6274 0 12 0C5.37258 0 0 5.37258 0 12C0 18.6274 5.37258 24 12 24ZM15.2401 12.6663H7.33341C7.1566 12.6663 6.98703 12.5961 6.86201 12.4711C6.73699 12.3461 6.66675 12.1765 6.66675 11.9997C6.66675 11.8229 6.73699 11.6533 6.86201 11.5283C6.98703 11.4032 7.1566 11.333 7.33341 11.333H15.2401L12.8201 8.42634C12.7639 8.35898 12.7217 8.2812 12.6956 8.19746C12.6696 8.11373 12.6603 8.02568 12.6684 7.93836C12.6764 7.85104 12.7016 7.76617 12.7425 7.68861C12.7834 7.61104 12.8392 7.54231 12.9067 7.48634C13.0267 7.38695 13.1776 7.3327 13.3334 7.33301C13.4314 7.33285 13.5281 7.35427 13.6168 7.39575C13.7056 7.43723 13.7841 7.49775 13.8467 7.57301L17.1801 11.573C17.2025 11.6048 17.2226 11.6382 17.2401 11.673C17.2455 11.6867 17.2544 11.6981 17.2629 11.7091C17.2751 11.725 17.2867 11.74 17.2867 11.7597C17.317 11.8361 17.3328 11.9175 17.3334 11.9997C17.3328 12.0819 17.317 12.1632 17.2867 12.2397C17.2813 12.2533 17.2725 12.2648 17.2639 12.2758C17.2517 12.2916 17.2401 12.3067 17.2401 12.3263C17.2226 12.3611 17.2025 12.3945 17.1801 12.4263L13.8467 16.4263C13.7336 16.5625 13.571 16.6481 13.3947 16.6644C13.2184 16.6806 13.0429 16.6262 12.9067 16.513C12.7706 16.3999 12.685 16.2372 12.6687 16.061C12.6607 15.9737 12.6699 15.8857 12.6959 15.8019C12.7218 15.7182 12.7641 15.6404 12.8201 15.573L15.2401 12.6663Z" />
        </g>
        <g id="Invisible_Shape">
            <rect fill="none" stroke="none" width="24" height="24"></rect>
        </g>
    </symbol>
    <symbol id="discord-circle" viewBox="0 0 24 24">
        <g>
            <path fill-rule="evenodd" clip-rule="evenodd" d="M12 24C18.6274 24 24 18.6274 24 12C24 5.37258 18.6274 0 12 0C5.37258 0 0 5.37258 0 12C0 18.6274 5.37258 24 12 24ZM14.2879 6.00083C15.4313 6.19828 16.5248 6.54302 17.5446 7.01094C17.5534 7.01475 17.561 7.02111 17.5654 7.02998C19.3723 9.68765 20.2647 12.6856 19.931 16.1369C19.9298 16.1515 19.9222 16.1648 19.9102 16.1737C18.5417 17.1787 17.216 17.7889 15.9087 18.1933C15.8878 18.1997 15.8652 18.192 15.8525 18.1743C15.5505 17.754 15.2761 17.3108 15.0358 16.8454C15.022 16.8181 15.0346 16.7851 15.0629 16.7743C15.4987 16.6099 15.9131 16.4131 16.3117 16.1801C16.3432 16.1617 16.3451 16.1166 16.3161 16.095C16.2316 16.0321 16.1477 15.9661 16.0676 15.9001C16.0525 15.888 16.0323 15.8855 16.0152 15.8937C13.4276 17.0892 10.5928 17.0892 7.97429 15.8937C7.95726 15.8861 7.93707 15.8886 7.92258 15.9007C7.84249 15.9667 7.75859 16.0321 7.67471 16.095C7.64571 16.1166 7.64823 16.1617 7.67976 16.1801C8.07834 16.4086 8.49269 16.6099 8.92785 16.775C8.95622 16.7858 8.96947 16.8181 8.95559 16.8454C8.72037 17.3115 8.44602 17.7546 8.13826 18.1749C8.12501 18.192 8.10295 18.1997 8.08212 18.1933C6.78108 17.7889 5.45541 17.1787 4.08687 16.1737C4.07552 16.1648 4.06732 16.1509 4.06606 16.1363C3.78731 13.151 4.35553 10.1283 6.4298 7.02935C6.43482 7.02111 6.4424 7.01475 6.45123 7.01094C7.47165 6.54239 8.56521 6.19765 9.70797 6.00083C9.7288 5.99765 9.7496 6.00718 9.76032 6.02559C9.9016 6.27573 10.063 6.59636 10.1722 6.85856C11.3767 6.67445 12.6002 6.67445 13.83 6.85856C13.9391 6.60206 14.0949 6.27573 14.2355 6.02559C14.2462 6.00654 14.267 5.99702 14.2879 6.00083ZM7.90869 12.7059C7.90869 13.5948 8.55827 14.3186 9.34662 14.3186C10.1475 14.3186 10.7845 13.5948 10.7845 12.7059C10.7971 11.8234 10.1539 11.0933 9.34662 11.0933C8.54567 11.0933 7.90869 11.8171 7.90869 12.7059ZM13.2252 12.7059C13.2252 13.5948 13.8748 14.3186 14.6631 14.3186C15.4704 14.3186 16.101 13.5948 16.101 12.7059C16.1136 11.8234 15.4704 11.0933 14.6631 11.0933C13.8622 11.0933 13.2252 11.8171 13.2252 12.7059Z" fill="white" />
        </g>
        <g id="Invisible_Shape">
            <rect fill="none" stroke="none" width="24" height="24"></rect>
        </g>
    </symbol>
    <symbol id="close" viewBox="0 0 24 24">
        <g>
            <path d="M13.4099 12.0002L17.7099 7.71019C17.8982 7.52188 18.004 7.26649 18.004 7.00019C18.004 6.73388 17.8982 6.47849 17.7099 6.29019C17.5216 6.10188 17.2662 5.99609 16.9999 5.99609C16.7336 5.99609 16.4782 6.10188 16.2899 6.29019L11.9999 10.5902L7.70994 6.29019C7.52164 6.10188 7.26624 5.99609 6.99994 5.99609C6.73364 5.99609 6.47824 6.10188 6.28994 6.29019C6.10164 6.47849 5.99585 6.73388 5.99585 7.00019C5.99585 7.26649 6.10164 7.52188 6.28994 7.71019L10.5899 12.0002L6.28994 16.2902C6.19621 16.3831 6.12182 16.4937 6.07105 16.6156C6.02028 16.7375 5.99414 16.8682 5.99414 17.0002C5.99414 17.1322 6.02028 17.2629 6.07105 17.3848C6.12182 17.5066 6.19621 17.6172 6.28994 17.7102C6.3829 17.8039 6.4935 17.8783 6.61536 17.9291C6.73722 17.9798 6.86793 18.006 6.99994 18.006C7.13195 18.006 7.26266 17.9798 7.38452 17.9291C7.50638 17.8783 7.61698 17.8039 7.70994 17.7102L11.9999 13.4102L16.2899 17.7102C16.3829 17.8039 16.4935 17.8783 16.6154 17.9291C16.7372 17.9798 16.8679 18.006 16.9999 18.006C17.132 18.006 17.2627 17.9798 17.3845 17.9291C17.5064 17.8783 17.617 17.8039 17.7099 17.7102C17.8037 17.6172 17.8781 17.5066 17.9288 17.3848C17.9796 17.2629 18.0057 17.1322 18.0057 17.0002C18.0057 16.8682 17.9796 16.7375 17.9288 16.6156C17.8781 16.4937 17.8037 16.3831 17.7099 16.2902L13.4099 12.0002Z" fill="white" />
        </g>
        <g id="Invisible_Shape">
            <rect fill="none" stroke="none" width="24" height="24"></rect>
        </g>
    </symbol>
    <symbol id="luna" viewBox="0 0 24 24">
        <g>
            <path fill-rule="evenodd" clip-rule="evenodd" d="M8.69273 3.52372C7.21961 5.68765 2.31165 7.21293 1.50464 6.97503L1.50098 6.96588L1.60162 6.77099C2.44484 5.1888 3.64229 3.82288 5.10051 2.77984C5.40246 2.56299 5.71538 2.36078 6.03837 2.17229C6.72369 1.78343 7.42823 1.75964 7.65972 1.75049C9.84469 1.79075 8.70371 3.50634 8.69182 3.52372" fill="white" />
            <path fill-rule="evenodd" clip-rule="evenodd" d="M7.4562 19.7396C7.566 20.4506 7.45346 23.2605 7.30523 23.4975C7.17896 23.5048 6.91362 23.5213 6.14778 23.0967C4.66177 22.2595 3.36789 21.1199 2.34969 19.7515C1.60483 18.7492 1.02134 17.6366 0.620373 16.4539C0.207617 15.2306 -0.00194338 13.9479 1.53154e-05 12.6568C-0.00227022 11.2375 0.251267 9.82937 0.74847 8.5H0.7503C1.62868 9.65196 2.64431 10.6941 3.50714 11.858C4.32971 12.9651 5.46063 14.7704 5.69029 15.1565C7.11949 17.551 7.34732 19.0287 7.4562 19.7396Z" fill="white" />
            <path fill-rule="evenodd" clip-rule="evenodd" d="M23.9998 12.7896C23.9998 14.3259 23.707 15.7944 23.1772 17.1413C21.7865 18.6418 12.4061 14.949 12.3137 14.9087C11.0309 14.3451 7.12572 12.6286 6.77345 9.93303C6.26655 6.05533 14.1098 3.35248 17.5565 3.25C17.9692 3.25457 19.2273 3.26921 19.9602 3.86761C21.231 4.98029 22.249 6.35208 22.9458 7.8908C23.6426 9.42953 24.002 11.0996 23.9998 12.7887V12.7896ZM15.797 22.3814C16.3579 20.3958 21.2622 18.3609 22.3446 18.2511C22.4782 18.2374 22.5349 18.3316 22.4764 18.4396C21.3473 20.4928 19.6756 22.1837 17.6526 23.2799C16.6296 23.7758 15.5042 23.4144 15.797 22.3814Z" fill="white" />
        </g>
        <g id="Invisible_Shape">
            <rect fill="none" stroke="none" width="24" height="24"></rect>
        </g>
    </symbol>
    <symbol id="bsc" viewBox="0 0 24 24">
        <g>
            <path d="M5.99969 3.67607L12.3613 0L18.7229 3.67607L16.384 5.03274L12.3603 2.71535L8.33853 5.03274L5.99969 3.67607Z" fill="white" />
            <path d="M16.3835 6.95448L16.383 6.95419H16.384L16.3835 6.95448L18.7229 8.31187V11.0282L14.7001 13.3466V17.9834L12.3613 19.3411L10.0224 17.9834V13.3466L5.99969 11.0282V8.31187L8.33853 6.95419L12.3603 9.27259L16.3835 6.95448Z" fill="white" />
            <path d="M18.7229 15.665V12.9497L16.384 14.3063V17.0227L18.7229 15.665Z" fill="white" />
            <path d="M20.3827 16.6247L16.361 18.9431V21.6595L22.7226 17.9834V10.6303L20.3827 11.9889V16.6247Z" fill="white" />
            <path d="M18.0449 5.99447L20.3827 7.35215H20.3837V10.0685L22.7226 8.71083V5.99447L20.3837 4.63579L18.0449 5.99447Z" fill="white" />
            <path d="M10.0234 19.926V22.6423L12.3623 24L14.7011 22.6423V19.926L12.3623 21.2836L10.0234 19.926Z" fill="white" />
            <path d="M5.99969 15.665L8.33652 17.0217L8.33853 17.0227V14.3063L5.99969 12.9487V15.665Z" fill="white" />
            <path d="M10.0214 5.99447L12.3603 7.35114V7.35215L14.6991 5.99447L12.3603 4.63579L10.0214 5.99447Z" fill="white" />
            <path d="M4.33884 7.35215L6.67767 5.99447L4.33884 4.63579L2 5.99447V8.71083L4.33884 10.0685V7.35215Z" fill="white" />
            <path d="M2.001 10.6308L2 10.6303H2.001V10.6308L4.33884 11.9889V16.6247L8.36059 18.9431V21.6595L2.001 17.9834V10.6308Z" fill="white" />
        </g>
        <g id="Invisible_Shape">
            <rect fill="none" stroke="none" width="24" height="24"></rect>
        </g>
    </symbol>
    <symbol id="sol" viewBox="0 0 24 24">
        <g>
            <path d="M3.90033 17.2985C4.04717 17.1523 4.24626 17.0701 4.45387 17.0701H23.6075C23.9565 17.0701 24.1314 17.4905 23.8843 17.736L20.0998 21.502C19.9527 21.6482 19.7536 21.7305 19.5461 21.7305H0.392324C0.0434561 21.7305 -0.131243 21.3101 0.115567 21.0645L3.90033 17.2985Z" fill="white" />
            <path d="M3.90033 3.22821C4.04717 3.08205 4.24626 3 4.45387 3H23.6075C23.9565 3 24.1314 3.42017 23.8843 3.66583L20.0998 7.43198C19.9527 7.5781 19.7536 7.66016 19.5461 7.66016H0.392324C0.0434561 7.66016 -0.131243 7.23999 0.115567 6.99439L3.90033 3.22821Z" fill="white" />
            <path d="M20.0998 10.2182C19.9527 10.0721 19.7536 9.98999 19.5461 9.98999H0.392324C0.0434561 9.98999 -0.131243 10.4102 0.115567 10.6558L3.90033 14.4219C4.04717 14.5681 4.24626 14.6502 4.45387 14.6502H23.6075C23.9565 14.6502 24.1314 14.23 23.8843 13.9844L20.0998 10.2182Z" fill="white" />
        </g>
        <g id="Invisible_Shape">
            <rect fill="none" stroke="none" width="24" height="24"></rect>
        </g>
    </symbol>
    <symbol id="ada" viewBox="0 0 24 24">
        <g>
            <path d="M6.5757 12.0046C6.5511 12.4331 6.69761 12.8538 6.98302 13.1743C7.26844 13.4948 7.66942 13.6889 8.09787 13.7139H8.18616C8.5017 13.7136 8.81024 13.6209 9.07368 13.4472C9.33713 13.2735 9.54396 13.0265 9.66864 12.7366C9.79333 12.4468 9.83041 12.1267 9.77531 11.8161C9.72022 11.5054 9.57535 11.2176 9.3586 10.9883C9.14185 10.759 8.8627 10.5981 8.5556 10.5256C8.24849 10.4531 7.92689 10.4722 7.63047 10.5803C7.33405 10.6885 7.07579 10.8811 6.88757 11.1344C6.69934 11.3876 6.58939 11.6904 6.57129 12.0055L6.5757 12.0046Z" fill="white" />
            <path d="M0.550969 11.5948C0.44796 11.589 0.345553 11.6139 0.256691 11.6664C0.16783 11.7188 0.0965005 11.7964 0.0517189 11.8893C0.00693726 11.9823 -0.00928709 12.0864 0.00509623 12.1886C0.0194795 12.2907 0.063825 12.3863 0.132528 12.4633C0.201231 12.5403 0.291209 12.5951 0.391089 12.621C0.49097 12.6468 0.596271 12.6425 0.693684 12.6085C0.791097 12.5745 0.87625 12.5124 0.938382 12.4301C1.00051 12.3477 1.03684 12.2488 1.04276 12.1458C1.04681 12.0773 1.03729 12.0086 1.01475 11.9438C0.992197 11.879 0.957064 11.8193 0.911366 11.7681C0.865667 11.7169 0.810303 11.6752 0.748455 11.6455C0.686607 11.6157 0.619493 11.5985 0.550969 11.5948V11.5948Z" fill="white" />
            <path d="M6.47338 2.62706C6.56512 2.57995 6.64088 2.50675 6.69111 2.41668C6.74134 2.3266 6.7638 2.22368 6.75567 2.12087C6.74753 2.01806 6.70916 1.91995 6.64539 1.83889C6.58162 1.75784 6.4953 1.69746 6.39728 1.66536C6.29927 1.63327 6.19396 1.63088 6.09459 1.65851C5.99523 1.68613 5.90626 1.74254 5.83888 1.82062C5.7715 1.8987 5.72873 1.99497 5.71595 2.09731C5.70316 2.19965 5.72094 2.30348 5.76704 2.39574C5.79803 2.45749 5.84093 2.5125 5.89328 2.55759C5.94563 2.60268 6.00638 2.63697 6.07204 2.65848C6.1377 2.67998 6.20697 2.68827 6.27585 2.68288C6.34473 2.67749 6.41186 2.65852 6.47338 2.62706V2.62706Z" fill="white" />
            <path d="M8.11283 5.48601C8.25531 5.41413 8.37329 5.30163 8.45184 5.16272C8.53039 5.0238 8.56599 4.86472 8.55415 4.70558C8.5423 4.54643 8.48353 4.39438 8.38528 4.26863C8.28702 4.14288 8.15369 4.04908 8.00214 3.9991C7.85058 3.94912 7.68761 3.94519 7.53383 3.98782C7.38004 4.03044 7.24235 4.11771 7.13815 4.23858C7.03395 4.35945 6.96793 4.5085 6.94843 4.66688C6.92893 4.82527 6.95683 4.98589 7.0286 5.12842C7.07628 5.22312 7.14216 5.30749 7.22246 5.37672C7.30277 5.44595 7.39593 5.49867 7.49662 5.53188C7.59731 5.56509 7.70356 5.57813 7.80929 5.57026C7.91502 5.56239 8.01817 5.53376 8.11283 5.48601V5.48601Z" fill="white" />
            <path d="M2.59545 7.45227C2.70535 7.52454 2.83421 7.56259 2.96574 7.5616C3.09727 7.56061 3.22555 7.52063 3.33435 7.44672C3.44316 7.3728 3.52759 7.26827 3.57696 7.14636C3.62634 7.02445 3.63845 6.89062 3.61175 6.76183C3.58505 6.63303 3.52075 6.51505 3.42698 6.42281C3.33321 6.33057 3.21418 6.26822 3.08497 6.24364C2.95575 6.21907 2.82215 6.23337 2.70106 6.28475C2.57998 6.33612 2.47685 6.42226 2.40474 6.53226C2.30815 6.67959 2.27398 6.85923 2.30974 7.03173C2.3455 7.20422 2.44826 7.35548 2.59545 7.45227V7.45227Z" fill="white" />
            <path d="M3.57805 11.3008C3.41873 11.2919 3.26032 11.3303 3.12285 11.4113C2.98537 11.4923 2.875 11.6123 2.80569 11.756C2.73638 11.8998 2.71123 12.0608 2.73344 12.2188C2.75564 12.3769 2.82419 12.5248 2.93043 12.6438C3.03666 12.7629 3.17581 12.8478 3.33029 12.8878C3.48477 12.9278 3.64764 12.9211 3.79831 12.8685C3.94898 12.816 4.0807 12.72 4.1768 12.5926C4.27291 12.4652 4.32909 12.3122 4.33825 12.1529C4.3503 11.9391 4.27701 11.7293 4.13447 11.5695C3.99192 11.4098 3.7918 11.3131 3.57805 11.3008V11.3008Z" fill="white" />
            <path d="M2.68429 16.7265C2.56696 16.7858 2.46984 16.8786 2.40521 16.993C2.34059 17.1075 2.31135 17.2386 2.32121 17.3697C2.33106 17.5008 2.37956 17.626 2.46058 17.7296C2.5416 17.8331 2.65149 17.9103 2.77637 17.9514C2.90125 17.9925 3.03552 17.9956 3.16218 17.9604C3.28885 17.9252 3.40224 17.8533 3.48802 17.7536C3.5738 17.654 3.62811 17.5312 3.64409 17.4007C3.66008 17.2702 3.63701 17.1379 3.57782 17.0205C3.53848 16.9425 3.48416 16.873 3.41796 16.816C3.35176 16.759 3.27497 16.7156 3.19199 16.6883C3.10901 16.661 3.02146 16.6504 2.93434 16.6569C2.84723 16.6634 2.76226 16.6871 2.68429 16.7265V16.7265Z" fill="white" />
            <path d="M5.82123 9.63305C5.97837 9.73604 6.16253 9.79011 6.35041 9.78845C6.53829 9.78678 6.72145 9.72944 6.87675 9.62367C7.03204 9.51791 7.15248 9.36848 7.22285 9.19427C7.29322 9.02006 7.31035 8.82889 7.27208 8.64494C7.23381 8.461 7.14186 8.29253 7.00784 8.16084C6.87383 8.02915 6.70378 7.94015 6.51919 7.9051C6.3346 7.87006 6.14377 7.89053 5.97081 7.96393C5.79786 8.03733 5.65055 8.16037 5.54752 8.31749C5.47898 8.4218 5.43168 8.53861 5.40834 8.66122C5.385 8.78383 5.38608 8.90985 5.4115 9.03204C5.43692 9.15424 5.4862 9.27022 5.55651 9.37335C5.62681 9.47648 5.71677 9.56473 5.82123 9.63305V9.63305Z" fill="white" />
            <path d="M15.7731 5.42252C15.9069 5.5098 16.0636 5.55545 16.2233 5.5537C16.3831 5.55195 16.5387 5.50288 16.6705 5.41269C16.8024 5.32251 16.9046 5.19525 16.9641 5.04702C17.0237 4.89878 17.0379 4.73622 17.0051 4.57988C16.9723 4.42353 16.8939 4.28043 16.7797 4.16866C16.6656 4.05689 16.5209 3.98146 16.3639 3.95192C16.2069 3.92238 16.0446 3.94005 15.8977 4.00269C15.7507 4.06533 15.6256 4.17013 15.5382 4.30385C15.48 4.39267 15.4399 4.49211 15.4203 4.59645C15.4006 4.7008 15.4016 4.80801 15.4235 4.91193C15.4453 5.01586 15.4874 5.11445 15.5474 5.20207C15.6074 5.28969 15.6841 5.3646 15.7731 5.42252V5.42252Z" fill="white" />
            <path d="M17.4305 2.57239C17.517 2.62908 17.6183 2.65884 17.7217 2.65791C17.8251 2.65698 17.9259 2.6254 18.0114 2.56717C18.0968 2.50893 18.1631 2.42666 18.2018 2.33076C18.2405 2.23486 18.2498 2.12964 18.2287 2.02841C18.2076 1.92719 18.1569 1.8345 18.083 1.76209C18.0092 1.68968 17.9156 1.64079 17.814 1.62162C17.7124 1.60244 17.6073 1.61383 17.5122 1.65436C17.4171 1.69488 17.3361 1.76271 17.2795 1.84927C17.2037 1.96521 17.1771 2.10649 17.2054 2.24207C17.2337 2.37766 17.3146 2.49646 17.4305 2.57239V2.57239Z" fill="white" />
            <path d="M15.9003 10.4665C15.6884 10.4544 15.4762 10.484 15.2758 10.5539C15.0754 10.6237 14.8907 10.7323 14.7322 10.8736C14.4122 11.1588 14.2187 11.5594 14.1941 11.9874C14.1695 12.4153 14.3159 12.8355 14.6011 13.1555C14.8863 13.4755 15.287 13.669 15.7149 13.6936C15.7458 13.6936 15.7776 13.6936 15.8085 13.6936C16.1202 13.6935 16.4253 13.6031 16.6868 13.4335C16.9484 13.2639 17.1553 13.0222 17.2826 12.7377C17.4099 12.4531 17.4522 12.1378 17.4043 11.8298C17.3564 11.5217 17.2205 11.2341 17.0128 11.0016C16.8722 10.843 16.7014 10.714 16.5104 10.6222C16.3194 10.5303 16.112 10.4774 15.9003 10.4665V10.4665Z" fill="white" />
            <path d="M8.64384 9.52083C8.77797 9.78881 8.98425 10.014 9.23945 10.1711C9.49465 10.3282 9.78864 10.4109 10.0883 10.4099C10.3646 10.41 10.6363 10.3393 10.8774 10.2045C11.1186 10.0697 11.3212 9.8753 11.4659 9.63994C11.6106 9.40458 11.6925 9.13606 11.7039 8.86002C11.7153 8.58397 11.6558 8.30961 11.531 8.06312C11.3959 7.79637 11.1893 7.57248 10.9342 7.41654C10.679 7.2606 10.3855 7.17876 10.0865 7.18019C9.81111 7.18066 9.54037 7.25149 9.3 7.38597C9.05963 7.52044 8.8576 7.7141 8.71308 7.94857C8.56856 8.18304 8.48634 8.45054 8.47422 8.72571C8.4621 9.00087 8.52049 9.27457 8.64384 9.52083V9.52083Z" fill="white" />
            <path d="M21.314 7.45029C21.4313 7.39106 21.5285 7.29838 21.5932 7.18395C21.6579 7.06952 21.6872 6.93848 21.6775 6.8074C21.6677 6.67631 21.6193 6.55105 21.5384 6.44746C21.4575 6.34387 21.3477 6.26659 21.2228 6.22539C21.098 6.18419 20.9638 6.18092 20.8371 6.216C20.7104 6.25107 20.5969 6.32291 20.5111 6.42244C20.4252 6.52197 20.3708 6.64472 20.3546 6.77518C20.3385 6.90563 20.3614 7.03795 20.4205 7.15539C20.4999 7.31291 20.6387 7.43245 20.8062 7.48774C20.9737 7.54303 21.1564 7.52956 21.314 7.45029V7.45029Z" fill="white" />
            <path d="M17.2161 7.96512C17.0482 8.04964 16.9093 8.18203 16.8167 8.34553C16.7241 8.50904 16.6821 8.69633 16.6959 8.88372C16.7098 9.0711 16.7789 9.25017 16.8946 9.39827C17.0102 9.54637 17.1672 9.65686 17.3456 9.71576C17.524 9.77466 17.7159 9.77933 17.897 9.72917C18.0781 9.67902 18.2402 9.57629 18.3629 9.43398C18.4856 9.29168 18.5633 9.11618 18.5863 8.92969C18.6093 8.7432 18.5764 8.55409 18.4919 8.38628C18.4359 8.27477 18.3584 8.17541 18.2639 8.09387C18.1694 8.01234 18.0598 7.95024 17.9413 7.91112C17.8228 7.872 17.6978 7.85664 17.5733 7.8659C17.4489 7.87517 17.3275 7.90888 17.2161 7.96512V7.96512Z" fill="white" />
            <path d="M11.9386 2.32861C12.0699 2.33609 12.2004 2.30446 12.3138 2.23772C12.4271 2.17097 12.5181 2.07212 12.5752 1.95366C12.6323 1.83521 12.653 1.70246 12.6347 1.57223C12.6164 1.442 12.5599 1.32012 12.4723 1.22202C12.3847 1.12392 12.27 1.05401 12.1426 1.02112C12.0153 0.988235 11.881 0.993853 11.7569 1.03727C11.6328 1.08068 11.5243 1.15994 11.4452 1.26501C11.3661 1.37009 11.3199 1.49626 11.3126 1.62757C11.3027 1.80353 11.3631 1.97621 11.4805 2.10767C11.5978 2.23912 11.7626 2.31859 11.9386 2.32861Z" fill="white" />
            <path d="M11.931 6.51283C12.1185 6.52334 12.305 6.47802 12.4668 6.38259C12.6286 6.28717 12.7585 6.14592 12.84 5.9767C12.9216 5.80748 12.9511 5.61788 12.9249 5.43187C12.8987 5.24586 12.818 5.07179 12.6929 4.93165C12.5678 4.79152 12.404 4.69161 12.2221 4.64455C12.0403 4.59749 11.8486 4.6054 11.6712 4.66728C11.4939 4.72916 11.3388 4.84222 11.2257 4.99219C11.1126 5.14215 11.0465 5.32229 11.0357 5.50982C11.0215 5.76153 11.1078 6.00859 11.2757 6.19668C11.4436 6.38476 11.6793 6.49848 11.931 6.51283V6.51283Z" fill="white" />
            <path d="M6.78397 16.2109C6.95177 16.1263 7.0907 15.9939 7.18321 15.8303C7.27572 15.6667 7.31765 15.4794 7.30368 15.292C7.28972 15.1046 7.22049 14.9256 7.10476 14.7775C6.98903 14.6295 6.832 14.5191 6.65352 14.4603C6.47504 14.4015 6.28313 14.397 6.10207 14.4472C5.92101 14.4975 5.75892 14.6004 5.63632 14.7428C5.51371 14.8852 5.43609 15.0608 5.41328 15.2473C5.39046 15.4338 5.42348 15.6229 5.50814 15.7907C5.62164 16.0155 5.81979 16.1861 6.05904 16.265C6.29829 16.3438 6.55904 16.3243 6.78397 16.2109V16.2109Z" fill="white" />
            <path d="M12.5446 7.89913C12.3475 8.19982 12.2564 8.55764 12.2856 8.91595C12.3148 9.27427 12.4627 9.61261 12.7058 9.87743C12.9489 10.1422 13.2734 10.3184 13.628 10.3781C13.9825 10.4377 14.3468 10.3774 14.6632 10.2067C14.9796 10.036 15.23 9.76471 15.3748 9.43568C15.5197 9.10665 15.5507 8.73871 15.4629 8.3901C15.3751 8.04148 15.1735 7.7321 14.8901 7.51093C14.6067 7.28975 14.2576 7.16941 13.8981 7.16895C13.6296 7.16876 13.3653 7.23541 13.129 7.36288C12.8927 7.49036 12.6919 7.67464 12.5446 7.89913V7.89913Z" fill="white" />
            <path d="M15.3543 14.656C15.2249 14.3993 15.0293 14.1818 14.7877 14.0259C14.5462 13.8701 14.2674 13.7815 13.9801 13.7693C13.6929 13.7571 13.4076 13.8218 13.1537 13.9566C12.8998 14.0915 12.6865 14.2917 12.5358 14.5365C12.385 14.7813 12.3024 15.0619 12.2963 15.3493C12.2902 15.6368 12.3609 15.9206 12.5011 16.1716C12.6413 16.4226 12.8459 16.6316 13.0939 16.7771C13.3419 16.9226 13.6241 16.9993 13.9116 16.9993C14.1646 16.9976 14.4136 16.9371 14.6392 16.8227C15.0207 16.6296 15.3102 16.2932 15.4442 15.8871C15.5783 15.481 15.5459 15.0384 15.3543 14.656V14.656Z" fill="white" />
            <path d="M18.1784 14.543C18.0213 14.4399 17.8372 14.3857 17.6493 14.3872C17.4614 14.3888 17.2782 14.446 17.1228 14.5516C16.9675 14.6573 16.8469 14.8067 16.7764 14.9808C16.7059 15.155 16.6887 15.3462 16.7268 15.5301C16.765 15.7141 16.8568 15.8827 16.9908 16.0144C17.1247 16.1462 17.2947 16.2353 17.4793 16.2705C17.6639 16.3056 17.8547 16.2853 18.0277 16.212C18.2008 16.1386 18.3481 16.0157 18.4512 15.8586C18.5891 15.6478 18.6377 15.391 18.5866 15.1445C18.5355 14.8979 18.3887 14.6816 18.1784 14.543V14.543Z" fill="white" />
            <path d="M21.2709 12.1159C21.2799 11.9566 21.2415 11.7982 21.1604 11.6607C21.0794 11.5232 20.9595 11.4128 20.8157 11.3435C20.672 11.2742 20.5109 11.2491 20.3529 11.2713C20.1949 11.2935 20.047 11.362 19.9279 11.4683C19.8089 11.5745 19.724 11.7137 19.684 11.8681C19.644 12.0226 19.6507 12.1855 19.7032 12.3362C19.7558 12.4868 19.8518 12.6185 19.9792 12.7146C20.1066 12.8108 20.2596 12.8669 20.4189 12.8761C20.6326 12.8881 20.8425 12.8149 21.0022 12.6723C21.162 12.5298 21.2586 12.3296 21.2709 12.1159V12.1159Z" fill="white" />
            <path d="M23.5078 11.5409C23.4046 11.535 23.3019 11.5598 23.2128 11.6122C23.1237 11.6646 23.0521 11.7422 23.0072 11.8353C22.9622 11.9284 22.9458 12.0327 22.9601 12.1351C22.9744 12.2375 23.0188 12.3333 23.0876 12.4105C23.1563 12.4877 23.2465 12.5427 23.3465 12.5687C23.4466 12.5946 23.5521 12.5903 23.6497 12.5563C23.7474 12.5223 23.8327 12.4601 23.895 12.3776C23.9573 12.2951 23.9937 12.1959 23.9996 12.0927C24.0073 11.9544 23.9599 11.8186 23.8677 11.7152C23.7755 11.6118 23.6461 11.5491 23.5078 11.5409V11.5409Z" fill="white" />
            <path d="M21.4022 16.7239C21.2922 16.6519 21.1633 16.6141 21.0319 16.6153C20.9004 16.6165 20.7722 16.6566 20.6636 16.7306C20.5549 16.8046 20.4707 16.9092 20.4214 17.0311C20.3722 17.153 20.3602 17.2868 20.387 17.4155C20.4138 17.5442 20.4781 17.6621 20.5719 17.7543C20.6656 17.8464 20.7846 17.9087 20.9138 17.9332C21.0429 17.9578 21.1765 17.9435 21.2975 17.8921C21.4185 17.8408 21.5216 17.7547 21.5938 17.6448C21.6417 17.5718 21.6747 17.49 21.6911 17.4042C21.7074 17.3184 21.7066 17.2302 21.6888 17.1447C21.671 17.0591 21.6365 16.978 21.5874 16.9058C21.5382 16.8336 21.4752 16.7718 21.4022 16.7239V16.7239Z" fill="white" />
            <path d="M6.56824 21.6037C6.48182 21.547 6.38052 21.5172 6.27716 21.5181C6.17379 21.5189 6.07301 21.5504 5.98753 21.6086C5.90206 21.6667 5.83574 21.7489 5.79696 21.8447C5.75819 21.9405 5.74869 22.0456 5.76967 22.1469C5.79066 22.2481 5.84118 22.3408 5.91485 22.4133C5.98853 22.4858 6.08204 22.5348 6.18358 22.5542C6.28512 22.5736 6.39012 22.5624 6.4853 22.5221C6.58049 22.4818 6.66158 22.4141 6.71834 22.3277C6.75604 22.2704 6.78206 22.2061 6.79492 22.1387C6.80778 22.0712 6.80723 22.0019 6.79329 21.9347C6.77935 21.8674 6.7523 21.8036 6.71369 21.7468C6.67507 21.69 6.62565 21.6414 6.56824 21.6037V21.6037Z" fill="white" />
            <path d="M17.5247 21.5492C17.4324 21.5957 17.356 21.6686 17.3051 21.7585C17.2542 21.8485 17.2311 21.9516 17.2387 22.0547C17.2464 22.1578 17.2845 22.2563 17.3482 22.3378C17.4118 22.4192 17.4982 22.48 17.5964 22.5123C17.6946 22.5447 17.8002 22.5472 17.8998 22.5196C17.9994 22.4919 18.0886 22.4353 18.1561 22.357C18.2235 22.2787 18.2663 22.1821 18.2788 22.0795C18.2914 21.9768 18.2732 21.8728 18.2267 21.7805C18.1959 21.7191 18.1532 21.6645 18.1012 21.6196C18.0493 21.5748 17.9889 21.5406 17.9237 21.5191C17.8585 21.4976 17.7897 21.4892 17.7212 21.4944C17.6528 21.4995 17.586 21.5182 17.5247 21.5492Z" fill="white" />
            <path d="M11.4526 16.2745C11.6496 15.9738 11.7407 15.6159 11.7115 15.2576C11.6823 14.8992 11.5344 14.5609 11.2912 14.2961C11.048 14.0312 10.7234 13.8551 10.3688 13.7955C10.0143 13.736 9.64997 13.7963 9.33358 13.9671C9.0172 14.1379 8.76682 14.4094 8.62207 14.7385C8.47733 15.0676 8.44649 15.4356 8.53444 15.7842C8.62239 16.1328 8.8241 16.4421 9.10765 16.6632C9.3912 16.8843 9.74038 17.0044 10.0999 17.0047C10.3684 17.0056 10.6329 16.9393 10.8692 16.8117C11.1054 16.6842 11.306 16.4995 11.4526 16.2745Z" fill="white" />
            <path d="M8.22437 18.7547C8.09084 18.6674 7.9344 18.6216 7.77483 18.6231C7.61526 18.6246 7.45973 18.6734 7.3279 18.7633C7.19606 18.8532 7.09384 18.9802 7.03416 19.1282C6.97447 19.2762 6.96 19.4386 6.99258 19.5948C7.02516 19.751 7.10331 19.894 7.21717 20.0058C7.33103 20.1177 7.47548 20.1932 7.63226 20.2229C7.78905 20.2526 7.95112 20.2352 8.098 20.1728C8.24488 20.1105 8.36997 20.006 8.45747 19.8725C8.57465 19.6933 8.61593 19.475 8.57222 19.2654C8.52852 19.0558 8.40341 18.8721 8.22437 18.7547V18.7547Z" fill="white" />
            <path d="M11.9917 21.8475C11.8604 21.84 11.7299 21.8717 11.6166 21.9384C11.5033 22.0051 11.4123 22.1039 11.3552 22.2223C11.298 22.3407 11.2772 22.4734 11.2955 22.6036C11.3138 22.7338 11.3702 22.8557 11.4577 22.9538C11.5452 23.0519 11.6599 23.1219 11.7871 23.1549C11.9144 23.1878 12.0486 23.1823 12.1728 23.1391C12.2969 23.0958 12.4054 23.0167 12.4846 22.9117C12.5638 22.8068 12.6101 22.6807 12.6177 22.5494C12.6227 22.4622 12.6104 22.3749 12.5817 22.2924C12.5529 22.21 12.5082 22.134 12.4501 22.0688C12.392 22.0036 12.3216 21.9505 12.2429 21.9125C12.1642 21.8746 12.0789 21.8525 11.9917 21.8475Z" fill="white" />
            <path d="M11.9989 17.6643C11.8112 17.6529 11.6243 17.6975 11.4619 17.7924C11.2995 17.8873 11.169 18.0282 11.0868 18.1973C11.0046 18.3665 10.9744 18.5562 11.0001 18.7425C11.0258 18.9288 11.1063 19.1033 11.2312 19.2438C11.3562 19.3844 11.52 19.4847 11.702 19.532C11.884 19.5794 12.076 19.5717 12.2536 19.5098C12.4312 19.448 12.5864 19.3349 12.6997 19.1847C12.8129 19.0346 12.8791 18.8542 12.8897 18.6665C12.9042 18.4155 12.8186 18.1691 12.6515 17.9812C12.4845 17.7933 12.2498 17.6794 11.9989 17.6643V17.6643Z" fill="white" />
            <path d="M15.8847 18.6901C15.7421 18.7624 15.6242 18.8754 15.5459 19.0148C15.4676 19.1542 15.4324 19.3137 15.4448 19.473C15.4572 19.6324 15.5166 19.7846 15.6154 19.9102C15.7143 20.0358 15.8482 20.1293 16.0002 20.1788C16.1523 20.2282 16.3155 20.2315 16.4694 20.1881C16.6233 20.1448 16.7608 20.0567 16.8646 19.9352C16.9684 19.8136 17.0339 19.6639 17.0526 19.5052C17.0713 19.3464 17.0425 19.1857 16.9698 19.0433C16.9219 18.9488 16.8557 18.8646 16.7752 18.7957C16.6946 18.7268 16.6013 18.6744 16.5005 18.6416C16.3997 18.6088 16.2935 18.5962 16.1878 18.6045C16.0821 18.6129 15.9791 18.6419 15.8847 18.6901V18.6901Z" fill="white" />
        </g>
        <g id="Invisible_Shape">
            <rect fill="none" stroke="none" width="24" height="24"></rect>
        </g>
    </symbol>
    <symbol id="eth" viewBox="0 0 24 24">
        <g>
            <path d="M12.4159 0L12.2539 0.546763V16.4125L12.4159 16.5731L19.8319 12.2199L12.4159 0Z" fill="white" />
            <path d="M12.416 0L5 12.2199L12.416 16.5732V8.8724V0Z" fill="white" />
            <path d="M12.4155 17.9675L12.3242 18.078V23.7298L12.4155 23.9946L19.8359 13.6165L12.4155 17.9675Z" fill="white" />
            <path d="M12.416 23.9946V17.9675L5 13.6165L12.416 23.9946Z" fill="white" />
            <path d="M12.416 16.573L19.8319 12.2198L12.416 8.87231V16.573Z" fill="white" />
            <path d="M5.00098 12.22L12.4168 16.5732V8.87256L5.00098 12.22Z" fill="white" />
        </g>
        <g id="Invisible_Shape">
            <rect fill="none" stroke="none" width="24" height="24"></rect>
        </g>
    </symbol>
    <symbol id="twitter" viewBox="0 0 24 24">
        <g>
            <path d="M21.5577 6.83758C22.4971 6.13307 23.3425 5.28767 24 4.30137C23.1546 4.67711 22.1683 4.95891 21.182 5.05284C22.2153 4.44227 22.9668 3.50293 23.3425 2.32877C22.4032 2.89237 21.3229 3.31506 20.2427 3.5499C19.3033 2.5636 18.0352 2 16.6263 2C13.9022 2 11.6948 4.20744 11.6948 6.93151C11.6948 7.30725 11.7417 7.68298 11.8356 8.05871C7.74952 7.82389 4.08611 5.85127 1.64383 2.89237C1.22114 3.59687 0.986302 4.44228 0.986302 5.38161C0.986302 7.07242 1.8317 8.57535 3.19374 9.46772C2.3953 9.42075 1.59687 9.23288 0.939336 8.85715V8.90412C0.939336 11.2994 2.63014 13.2721 4.88455 13.7417C4.50881 13.8357 4.03914 13.9295 3.61644 13.9295C3.28767 13.9295 3.00587 13.8825 2.6771 13.8357C3.28767 15.8082 5.11937 17.2173 7.27985 17.2642C5.58904 18.5793 3.47554 19.3777 1.17416 19.3777C0.751469 19.3777 0.375734 19.3308 0 19.2838C2.16047 20.6928 4.74364 21.4912 7.56165 21.4912C16.6263 21.4912 21.5577 14.0235 21.5577 7.49511C21.5577 7.26027 21.5577 7.07241 21.5577 6.83758Z" fill="white" />
        </g>
        <g id="Invisible_Shape">
            <rect fill="none" stroke="none" width="24" height="24"></rect>
        </g>
    </symbol>
    <symbol id="telegram" viewBox="0 0 24 24">
        <g>
            <path fill-rule="evenodd" clip-rule="evenodd" d="M18.3844 21.7791C18.7064 22.0071 19.1214 22.0641 19.4914 21.9241C19.8614 21.7831 20.1334 21.4671 20.2154 21.0841C21.0844 17.0001 23.1924 6.66315 23.9834 2.94815C24.0434 2.66815 23.9434 2.37715 23.7234 2.19015C23.5034 2.00315 23.1984 1.94915 22.9264 2.05015C18.7334 3.60215 5.8204 8.44715 0.542398 10.4002C0.207398 10.5242 -0.0106021 10.8462 0.000397851 11.1992C0.0123979 11.5532 0.250398 11.8602 0.593398 11.9632C2.9604 12.6711 6.0674 13.6561 6.0674 13.6561C6.0674 13.6561 7.5194 18.0411 8.2764 20.2711C8.3714 20.5511 8.5904 20.7711 8.8794 20.8471C9.1674 20.9221 9.4754 20.8431 9.6904 20.6401C10.9064 19.4921 12.7864 17.7171 12.7864 17.7171C12.7864 17.7171 16.3584 20.3361 18.3844 21.7791ZM7.3744 13.1021L9.0534 18.6401L9.4264 15.1331C9.4264 15.1331 15.9134 9.28215 19.6114 5.94715C19.7194 5.84915 19.7344 5.68515 19.6444 5.57015C19.5554 5.45515 19.3914 5.42815 19.2684 5.50615C14.9824 8.24315 7.3744 13.1021 7.3744 13.1021Z" fill="white" />
        </g>
        <g id="Invisible_Shape">
            <rect fill="none" stroke="none" width="24" height="24"></rect>
        </g>
    </symbol>
    <symbol id="medium" viewBox="0 0 24 24">
        <g>
            <path d="M2.84594 5.88686C2.87576 5.59224 2.7634 5.30105 2.54342 5.10277L0.302521 2.40325V2H7.26051L12.6387 13.795L17.367 2H24V2.40325L22.0841 4.24026C21.9189 4.36617 21.8369 4.57311 21.8711 4.77792V18.2755C21.8369 18.4803 21.9189 18.6872 22.0841 18.8132L23.9552 20.6502V21.0534H14.5434V20.6502L16.4818 18.7684C16.6723 18.5779 16.6723 18.5219 16.6723 18.2307V7.32062L11.2829 21.0086H10.5546L4.28011 7.32062V16.4946C4.2278 16.8802 4.3559 17.2685 4.62745 17.5474L7.14846 20.6054V21.0086H0V20.6054L2.52101 17.5474C2.79059 17.268 2.91121 16.8771 2.84594 16.4946V5.88686Z" fill="white" />
        </g>
        <g id="Invisible_Shape">
            <rect fill="none" stroke="none" width="24" height="24"></rect>
        </g>
    </symbol>
    <symbol id="linkedin" viewBox="0 0 24 24">
        <g>
            <path d="M22.2857 0H1.66071C0.75 0 0 0.803566 0 1.76786V22.2857C0 23.2501 0.75 24 1.66071 24H22.2857C23.1965 24 24 23.2501 24 22.2857V1.76786C24 0.803566 23.1965 0 22.2857 0ZM7.23214 20.5714H3.69643V9.16071H7.23214V20.5714ZM5.46429 7.55358C4.28571 7.55358 3.37499 6.64286 3.37499 5.51785C3.37499 4.39286 4.28571 3.42857 5.46429 3.42857C6.58928 3.42857 7.5 4.39286 7.5 5.51785C7.5 6.64286 6.58928 7.55358 5.46429 7.55358ZM20.5714 20.5714H16.9822V15C16.9822 13.7143 16.9822 12 15.1607 12C13.2857 12 13.0178 13.4464 13.0178 14.9464V20.5714H9.48215V9.16071H12.8571V10.7143H12.9107C13.3929 9.80357 14.5714 8.83929 16.2857 8.83929C19.875 8.83929 20.5714 11.2501 20.5714 14.3035V20.5714Z" fill="white" />
        </g>
        <g id="Invisible_Shape">
            <rect fill="none" stroke="none" width="24" height="24"></rect>
        </g>
    </symbol>
    <symbol id="discord" viewBox="0 0 24 24">
        <g>
            <path d="M20.317 4.51641C18.7873 3.81453 17.147 3.29742 15.4319 3.00124C15.4007 2.99553 15.3695 3.00981 15.3534 3.03838C15.1424 3.4136 14.9087 3.9031 14.7451 4.28784C12.9004 4.01167 11.0652 4.01167 9.25832 4.28784C9.09465 3.89454 8.85248 3.4136 8.64057 3.03838C8.62449 3.01076 8.59328 2.99648 8.56205 3.00124C6.84791 3.29647 5.20756 3.81358 3.67694 4.51641C3.66368 4.52213 3.65233 4.53166 3.64479 4.54403C0.533392 9.19239 -0.31895 13.7265 0.09918 18.2044C0.101072 18.2263 0.11337 18.2473 0.130398 18.2606C2.18321 19.7681 4.17171 20.6833 6.12328 21.2899C6.15451 21.2995 6.18761 21.2881 6.20748 21.2623C6.66913 20.6319 7.08064 19.9672 7.43348 19.2681C7.4543 19.2272 7.43442 19.1786 7.39186 19.1624C6.73913 18.9148 6.1176 18.6129 5.51973 18.2701C5.47244 18.2425 5.46865 18.1748 5.51216 18.1425C5.63797 18.0482 5.76382 17.9501 5.88396 17.8511C5.90569 17.833 5.93598 17.8291 5.96153 17.8406C9.88928 19.6338 14.1415 19.6338 18.023 17.8406C18.0485 17.8282 18.0788 17.832 18.1015 17.8501C18.2216 17.9491 18.3475 18.0482 18.4742 18.1425C18.5177 18.1748 18.5149 18.2425 18.4676 18.2701C17.8697 18.6196 17.2482 18.9148 16.5945 19.1615C16.552 19.1777 16.533 19.2272 16.5538 19.2681C16.9143 19.9662 17.3258 20.6309 17.7789 21.2614C17.7978 21.2881 17.8319 21.2995 17.8631 21.2899C19.8241 20.6833 21.8126 19.7681 23.8654 18.2606C23.8834 18.2473 23.8948 18.2272 23.8967 18.2053C24.3971 13.0284 23.0585 8.53148 20.3482 4.54498C20.3416 4.53166 20.3303 4.52213 20.317 4.51641ZM8.02002 15.4778C6.8375 15.4778 5.86313 14.3922 5.86313 13.0589C5.86313 11.7256 6.8186 10.64 8.02002 10.64C9.23087 10.64 10.1958 11.7351 10.1769 13.0589C10.1769 14.3922 9.22141 15.4778 8.02002 15.4778ZM15.9947 15.4778C14.8123 15.4778 13.8379 14.3922 13.8379 13.0589C13.8379 11.7256 14.7933 10.64 15.9947 10.64C17.2056 10.64 18.1705 11.7351 18.1516 13.0589C18.1516 14.3922 17.2056 15.4778 15.9947 15.4778Z" fill="white" />
        </g>
        <g id="Invisible_Shape">
            <rect fill="none" stroke="none" width="24" height="24"></rect>
        </g>
    </symbol>
    <symbol id="email" viewBox="0 0 24 24">
        <g>
            <rect class="a" x="0.75" y="4.5" width="22.5" height="15" rx="1.5" ry="1.5"></rect>
            <line class="a" x1="15.687" y1="9.975" x2="19.5" y2="13.5"></line>
            <line class="a" x1="8.313" y1="9.975" x2="4.5" y2="13.5"></line>
            <path class="a" d="M22.88,5.014l-9.513,6.56a2.406,2.406,0,0,1-2.734,0L1.12,5.014"></path>
        </g>
        <g id="Invisible_Shape">
            <rect fill="none" stroke="none" width="24" height="24"></rect>
        </g>
    </symbol>
    <symbol id="code" viewBox="0 0 24 24">
        <g>
            <path class="a" d="M9,12.75H2.25a1.5,1.5,0,0,1-1.5-1.5v-9A1.5,1.5,0,0,1,2.25.75h18a1.5,1.5,0,0,1,1.5,1.5v9a1.5,1.5,0,0,1-1.5,1.5"></path>
            <path class="a" d="M13.1,13.461,16,22.723a.751.751,0,0,0,1.218.334L18.75,18.75l4.252-.9a.75.75,0,0,0-.185-1.237l-8.683-4.053A.75.75,0,0,0,13.1,13.461Z"></path>
            <path class="a" d="M5.25,6.375a.375.375,0,1,1-.375.375.374.374,0,0,1,.375-.375"></path>
            <path class="a" d="M11.25,6.375a.375.375,0,1,1-.375.375.374.374,0,0,1,.375-.375"></path>
            <path class="a" d="M17.25,6.375a.375.375,0,1,1-.375.375.374.374,0,0,1,.375-.375"></path>
        </g>
        <g id="Invisible_Shape">
            <rect fill="none" stroke="none" width="24" height="24"></rect>
        </g>
    </symbol>
    <symbol id="success" viewBox="0 0 24 24">
        <g>
            <path fill="none" class="a" d="M23.25,4.249,11.808,19.505a1.5,1.5,0,0,1-2.261.161L6.57,16.689"></path>
            <path fill="none" class="a" d="M6,19.76a1.5,1.5,0,0,1-2.133.012L.89,16.8"></path>
            <line fill="none" class="a" x1="17.43" y1="4.355" x2="9.29" y2="15.209"></line>
        </g>
        <g id="Invisible_Shape">
            <rect fill="none" stroke="none" width="24" height="24"></rect>
        </g>
    </symbol>
    <symbol id="error" viewBox="0 0 24 24">
        <g>
            <line class="a" x1="0.75" y1="23.249" x2="23.25" y2="0.749"></line>
            <line class="a" x1="23.25" y1="23.249" x2="0.75" y2="0.749"></line>
        </g>
        <g id="Invisible_Shape">
            <rect fill="none" stroke="none" width="24" height="24"></rect>
        </g>
    </symbol>
    <symbol id="warning" viewBox="0 0 24 24">
        <g>
            <path fill="none" class="a" d="M12,16.5a.375.375,0,1,0,.375.375A.375.375,0,0,0,12,16.5h0"></path>
            <line fill="none" class="b" x1="12" y1="13.5" x2="12" y2="6"></line>
            <path fill="none" class="a" d="M1.28,13.281a1.812,1.812,0,0,1,0-2.561l9.44-9.439a1.808,1.808,0,0,1,2.56,0l9.44,9.439a1.812,1.812,0,0,1,0,2.561L13.28,22.72a1.811,1.811,0,0,1-2.56,0Z"></path>
        </g>
        <g id="Invisible_Shape">
            <rect fill="none" stroke="none" width="24" height="24"></rect>
        </g>
    </symbol>
    <symbol id="info" viewBox="0 0 24 24">
        <g>
            <path fill="none" class="a" d="M14.25,16.5H13.5A1.5,1.5,0,0,1,12,15V11.25a.75.75,0,0,0-.75-.75H10.5"></path>
            <path fill="none" class="a" d="M11.625,6.75A.375.375,0,1,0,12,7.125a.375.375,0,0,0-.375-.375h0"></path>
            <circle fill="none" class="a" cx="12" cy="12" r="11.25"></circle>
        </g>
        <g id="Invisible_Shape">
            <rect fill="none" stroke="none" width="24" height="24"></rect>
        </g>
    </symbol>
    <symbol id="XXX" viewBox="0 0 24 24">
        <g></g>
        <g id="Invisible_Shape">
            <rect fill="none" stroke="none" width="24" height="24"></rect>
        </g>
    </symbol>
    <symbol id="user" viewBox="0 0 24 24">
        <g>
            <circle fill="none" class="cls-1" cx="12" cy="9.75" r="5.25"></circle>
            <path fill="none" class="cls-1" d="M18.913,20.876a9.746,9.746,0,0,0-13.826,0"></path>
            <circle fill="none" class="cls-1" cx="12" cy="12" r="11.25"></circle>
        </g>
        <g id="Invisible_Shape">
            <rect fill="none" stroke="none" width="24" height="24"></rect>
        </g>
    </symbol>
    <symbol id="password" viewBox="0 0 24 24">
        <g>
            <path fill="none" class="a" d="M12.818,14.517l2.545-2.545,1.752.47a1.572,1.572,0,0,0,1.924-1.924l-.47-1.752.784-.784,1.752.47a1.571,1.571,0,0,0,1.924-1.924L22.56,4.776a2.356,2.356,0,0,0-3.333-3.332L9.486,11.185a6.283,6.283,0,1,0,3.332,3.332Z"></path>
            <circle fill="none" class="a" cx="5.922" cy="18.081" r="1.571"></circle>
        </g>
        <g id="Invisible_Shape">
            <rect fill="none" stroke="none" width="24" height="24"></rect>
        </g>
    </symbol>
    <symbol id="tron" viewBox="0 0 18 18">
        <g>
            <path d="M8.34287 17L9.7143 7.4M17.0286 6.48571L9.7143 7.4M1.94287 1L9.7143 7.4M14.2857 3.28571L9.7143 7.4" fill="none" stroke-width="0.914286" stroke-linecap="round" stroke-linejoin="round"/>
            <path d="M7.91842 17.1698C7.97836 17.3196 8.11286 17.4268 8.27231 17.4517C8.43176 17.4766 8.59253 17.4156 8.69531 17.2911L17.381 6.77686C17.5226 6.60545 17.5204 6.35702 17.3757 6.18821L14.6328 2.98821C14.5648 2.90888 14.4717 2.85524 14.369 2.83621L2.02611 0.5505C1.8623 0.520165 1.69496 0.581343 1.58934 0.710177C1.48372 0.83901 1.45655 1.0151 1.51842 1.16978L7.91842 17.1698Z" fill="none" stroke-width="0.914286" stroke-linecap="round" stroke-linejoin="round"/>
        </g>
        <g id="Invisible_Shape">
            <rect fill="none" stroke="none" width="18" height="18"></rect>
        </g>
    </symbol>
    <symbol id="character" viewBox="0 0 18 18">
        <g>
            <path d="M6.5625 13.9402C6.5625 15.5204 4.425 17.4374 3.75 17.4374C3.075 17.4374 0.9375 15.5204 0.9375 13.9402V10.4429C0.942157 10.3542 0.981785 10.2709 1.04771 10.2113C1.11363 10.1517 1.20048 10.1206 1.28925 10.1249H6.21075C6.29952 10.1206 6.38637 10.1517 6.45229 10.2113C6.51822 10.2709 6.55784 10.3542 6.5625 10.4429V13.9402Z" fill="none" stroke-linecap="round" stroke-linejoin="round" />
            <path d="M16.125 3.77686C16.125 3.24361 15.621 1.52686 15 1.52686C14.379 1.52686 13.875 3.24361 13.875 3.77686V13.0979C13.9167 13.3663 14.053 13.611 14.2593 13.7877C14.4656 13.9644 14.7283 14.0615 15 14.0615C15.2717 14.0615 15.5344 13.9644 15.7407 13.7877C15.947 13.611 16.0833 13.3663 16.125 13.0979V3.77686Z" fill="none" stroke-linecap="round" stroke-linejoin="round" />
            <path d="M12.75 10.125H17.25" fill="none" stroke-linecap="round" stroke-linejoin="round" />
            <path d="M9.45521 7.23225C9.40513 7.28247 9.37569 7.34964 9.37271 7.4205C9.352 8.15235 9.04672 8.84729 8.52175 9.35762C7.99677 9.86796 7.29348 10.1535 6.56133 10.1535C5.82919 10.1535 5.1259 9.86796 4.60092 9.35762C4.07594 8.84729 3.77066 8.15235 3.74996 7.4205C3.74697 7.34964 3.71754 7.28247 3.66746 7.23225L2.54246 6.10725C2.50317 6.06792 2.47643 6.01783 2.4656 5.9633C2.45476 5.90878 2.46033 5.85226 2.4816 5.8009C2.50287 5.74954 2.53888 5.70564 2.58508 5.67473C2.63129 5.64382 2.68562 5.6273 2.74121 5.62725H3.46871C3.50583 5.62725 3.54259 5.6199 3.57686 5.60563C3.61113 5.59135 3.64224 5.57044 3.66838 5.54408C3.69453 5.51772 3.7152 5.48645 3.7292 5.45207C3.7432 5.41769 3.75025 5.38087 3.74996 5.34375V4.78125C3.74996 4.70666 3.77959 4.63512 3.83233 4.58238C3.88508 4.52963 3.95662 4.5 4.03121 4.5H9.09371C9.1683 4.5 9.23984 4.52963 9.29258 4.58238C9.34533 4.63512 9.37496 4.70666 9.37496 4.78125V5.34375C9.37496 5.41834 9.40459 5.48988 9.45733 5.54262C9.51008 5.59537 9.58162 5.625 9.65621 5.625H10.3837C10.4393 5.62505 10.4936 5.64157 10.5398 5.67248C10.586 5.70339 10.622 5.74729 10.6433 5.79865C10.6646 5.85001 10.6702 5.90653 10.6593 5.96105C10.6485 6.01558 10.6217 6.06567 10.5825 6.105L9.45521 7.23225Z" fill="none" stroke-linecap="round" stroke-linejoin="round" />
            <path d="M9.37502 4.49987C9.34535 3.45863 8.94662 2.46183 8.25002 1.68737C7.67246 1.06291 6.89119 0.664831 6.04652 0.564617C6.01756 0.562638 5.98846 0.565169 5.96027 0.572117L2.07302 1.54712C2.02142 1.55999 1.97452 1.58724 1.93778 1.62569C1.90103 1.66414 1.87594 1.71223 1.86542 1.76436C1.8549 1.8165 1.85938 1.87055 1.87833 1.92024C1.89729 1.96993 1.92995 2.01323 1.97252 2.04512L3.63752 3.29087C3.67249 3.31702 3.70088 3.35099 3.72041 3.39005C3.73994 3.42911 3.75008 3.47219 3.75002 3.51587V4.49987" fill="none" stroke-linecap="round" stroke-linejoin="round" />
            <path d="M8.08203 9.67969C8.93346 9.89343 9.68912 10.3854 10.2291 11.0775C10.769 11.7697 11.0624 12.6223 11.0625 13.5002V17.4377" fill="none" stroke-linecap="round" stroke-linejoin="round" />
        </g>
        <g id="Invisible_Shape">
            <rect fill="none" stroke="none" width="18" height="18"></rect>
        </g>
    </symbol>
    <symbol id="map" viewBox="0 0 18 18">
        <g>
            <path d="M0.375 16.5L4.875 17.625L9 16.5L13.125 17.625L17.625 16.5L16.875 2.625L12.75 3.75L9 2.625L5.25 3.75L1.125 2.625L0.375 16.5Z" fill="none" stroke-miterlimit="10" stroke-linecap="round" stroke-linejoin="round"/>
            <path d="M12.75 6.375L14.25 7.875" fill="none" stroke-miterlimit="10" stroke-linecap="round" stroke-linejoin="round"/>
            <path d="M12.75 7.875L14.25 6.375" fill="none" stroke-miterlimit="10" stroke-linecap="round" stroke-linejoin="round"/>
            <path d="M3.375 13.125L3.75 12.75" fill="none" stroke-miterlimit="10" stroke-linecap="round" stroke-linejoin="round"/>
            <path d="M5.625 10.875L6 10.5" fill="none" stroke-miterlimit="10" stroke-linecap="round" stroke-linejoin="round"/>
            <path d="M13.875 9V9.75" fill="none" stroke-miterlimit="10" stroke-linecap="round" stroke-linejoin="round"/>
            <path d="M10.5 10.875L10.875 11.25" fill="none" stroke-miterlimit="10" stroke-linecap="round" stroke-linejoin="round"/>
            <path d="M8.25 9.375H9" fill="none" stroke-miterlimit="10" stroke-linecap="round" stroke-linejoin="round"/>
            <path d="M13.125 12L13.5 11.625" fill="none" stroke-miterlimit="10" stroke-linecap="round" stroke-linejoin="round"/>
        </g>
        <g id="Invisible_Shape">
            <rect fill="none" stroke="none" width="18" height="18"></rect>
        </g>
    </symbol>
    <symbol id="link" viewBox="0 0 18 18">
        <g>
            <path d="M9.26547 12.4471L6.87822 14.8336C5.99997 15.7126 4.57497 15.7126 3.69597 14.8336L3.16572 14.3034C2.28822 13.4251 2.28822 12.0001 3.16647 11.1226L6.61422 7.67488C7.49322 6.79588 8.91747 6.79588 9.79647 7.67488L10.3267 8.20588" fill="none" stroke-miterlimit="10" stroke-linecap="round" stroke-linejoin="round"/>
            <path d="M8.73521 5.55225L11.1217 3.1665C12.0007 2.28825 13.4242 2.28825 14.3032 3.1665L14.8335 3.69675C15.7125 4.575 15.7125 6 14.8335 6.87825L11.3865 10.3253C10.5075 11.205 9.08321 11.205 8.20496 10.3253" fill="none" stroke-miterlimit="10" stroke-linecap="round" stroke-linejoin="round"/>
        </g>
        <g id="Invisible_Shape">
            <rect fill="none" stroke="none" width="18" height="18"></rect>
        </g>
    </symbol>
    <symbol id="merge" viewBox="0 0 18 18">
        <g>
            <path d="M17.625 7.875L9 11.625L0.375 7.875" fill="none" stroke-miterlimit="10" stroke-linecap="round" stroke-linejoin="round"/>
            <path d="M17.625 10.125L9 13.875L0.375 10.125" fill="none" stroke-miterlimit="10" stroke-linecap="round" stroke-linejoin="round"/>
            <path d="M17.625 12.375L9 16.125L0.375 12.375" fill="none" stroke-miterlimit="10" stroke-linecap="round" stroke-linejoin="round"/>
            <path d="M9 9.375L0.375 5.625L9 1.875L17.625 5.625L9 9.375Z" fill="none" stroke-miterlimit="10" stroke-linecap="round" stroke-linejoin="round"/>
        </g>
        <g id="Invisible_Shape">
            <rect fill="none" stroke="none" width="18" height="18"></rect>
        </g>
    </symbol>
    <symbol id="cart" viewBox="0 0 18 18">
        <g>
            <path d="M14.25 17.625C14.8713 17.625 15.375 17.1213 15.375 16.5C15.375 15.8787 14.8713 15.375 14.25 15.375C13.6287 15.375 13.125 15.8787 13.125 16.5C13.125 17.1213 13.6287 17.625 14.25 17.625Z" fill="none" stroke-miterlimit="10" stroke-linecap="round" stroke-linejoin="round"/>
            <path d="M6 17.625C6.62132 17.625 7.125 17.1213 7.125 16.5C7.125 15.8787 6.62132 15.375 6 15.375C5.37868 15.375 4.875 15.8787 4.875 16.5C4.875 17.1213 5.37868 17.625 6 17.625Z" fill="none" stroke-miterlimit="10" stroke-linecap="round" stroke-linejoin="round"/>
            <path d="M0.375 2.625H3L6 15.375H14.25" fill="none" stroke-miterlimit="10" stroke-linecap="round" stroke-linejoin="round"/>
            <path d="M5.64671 13.875H15.375L17.625 7.125H4.05896" fill="none" stroke-miterlimit="10" stroke-linecap="round" stroke-linejoin="round"/>
        </g>
        <g id="Invisible_Shape">
            <rect fill="none" stroke="none" width="18" height="18"></rect>
        </g>
    </symbol>
    <symbol id="upload" viewBox="0 0 18 18">
        <g>
            <path d="M8.625 17.6248V5.16357" fill="none" stroke-miterlimit="10" stroke-linecap="round" stroke-linejoin="round"/>
            <path d="M11.625 8.91357L8.625 5.16357L5.625 8.91357" fill="none" stroke-miterlimit="10" stroke-linecap="round" stroke-linejoin="round"/>
            <path d="M6.75 12.375H2.625V0.375H14.625V12.375H10.5" fill="none" stroke-miterlimit="10" stroke-linecap="round" stroke-linejoin="round"/>
        </g>
        <g id="Invisible_Shape">
            <rect fill="none" stroke="none" width="18" height="18"></rect>
        </g>
    </symbol>


    <symbol id="XXX" viewBox="0 0 24 24">
        <g></g>
        <g id="Invisible_Shape">
            <rect fill="none" stroke="none" width="24" height="24"></rect>
        </g>
    </symbol>

</svg>