<svg width="40" height="40" viewBox="0 0 40 40" fill="none"
    xmlns="http://www.w3.org/2000/svg">
    <path d="M19.9989 0C17.5072 0 15.1297 0.478689 12.9288 1.31495C13.4096 1.80324 13.8072 2.3716 14.1125 2.99498C15.9606 2.35185 17.9368 1.98578 20 1.98578C29.9327 1.98578 38.0125 10.0683 38.0125 19.9989C38.0125 29.9295 29.9326 38.0136 19.9989 38.0136C10.0673 38.0136 1.98687 29.9305 1.98687 20C1.98687 16.6544 2.92021 13.5308 4.51487 10.8432C3.96836 10.4249 3.48647 9.92322 3.10056 9.35166C1.14741 12.4389 0 16.0838 0 20C0 31.0278 8.97105 40 19.9989 40C31.0278 40 39.9999 31.0279 39.9999 20C39.9999 8.97215 31.0278 0 19.9989 0Z" fill="white"/>
    <animateTransform attributeName="transform" attributeType="XML" type="rotate" dur="1s" from="0 0 0" to="360 0 0" repeatCount="indefinite" />
</svg>
